<?xml version="1.0" standalone="no"?><!DOCTYPE svg PUBLIC "-//W3C//DTD SVG 1.1//EN" "http://www.w3.org/Graphics/SVG/1.1/DTD/svg11.dtd"><svg t="1553964204982" class="icon" style="" viewBox="0 0 1024 1024" version="1.1" xmlns="http://www.w3.org/2000/svg" p-id="4571" xmlns:xlink="http://www.w3.org/1999/xlink" width="32" height="32"><defs><style type="text/css"></style></defs><path d="M952.021665 288.826128l-0.072654-0.072655L663.790078 0.594541l-0.159635-0.141216-0.082888-0.101308-0.218988-0.010233-0.218987 0.010233H112.910583c-22.605857 0-40.932248 18.326391-40.932248 40.932248v941.441703c0 22.605857 18.326391 40.932248 40.932248 40.932248h798.178834c22.605857 0 40.932248-18.326391 40.932248-40.932248V290.309922l-0.011256-0.756223 0.011256-0.727571zM673.684426 79.95296l199.994963 199.994963h-179.528839c-11.30344 0-20.466124-9.162684-20.466124-20.466124V79.95296z m229.218542 874.120434c0 11.30344-9.162684 20.466124-20.466124 20.466124h-740.873688c-11.30344 0-20.466124-9.162684-20.466124-20.466124v-884.136555c0-11.30344 9.162684-20.466124 20.466124-20.466124h483.002572v238.663658c0 22.605857 18.326391 40.932248 40.932248 40.932248h237.404992v625.006773z" p-id="4572"></path><path d="M318.689273 357.502253l-0.02456 0.001024c-8.522094 0.618077-15.421224 7.02295-16.800641 15.312754L231.891418 588.168774c-3.143597 9.67536 2.15099 20.066011 11.826349 23.209607a18.318204 18.318204 0 0 0 7.695263 0.780783c0.684592 0.077771 1.378393 0.125867 2.084475 0.125867h233.943146v243.546875h-57.305147c-5.65172 0-10.233062 4.581342-10.233062 10.233062v28.652574c0 5.65172 4.581342 10.233062 10.233062 10.233061h163.728992a10.145058 10.145058 0 0 0 4.877077-1.23513 10.269901 10.269901 0 0 0 4.551666-5.015224 10.200316 10.200316 0 0 0 0.804319-3.982707v-28.652574c0-5.65172-4.581342-10.233062-10.233062-10.233062h-57.305147v-243.546875H769.243829c0.911766 0 1.799996-0.088004 2.676969-0.215918 2.720971 0.401136 5.568832 0.216941 8.362458-0.690732 9.67536-3.143597 14.969946-13.535271 11.82635-23.209607l-70.833255-218.002083c-2.591011-7.975649-10.109242-12.960173-18.090007-12.709463-0.153496-0.004093-0.302899-0.023536-0.457418-0.023536h-382.716518c-0.447185 0.001023-0.884137 0.036839-1.323135 0.068561z" p-id="4573"></path></svg>