<?xml version="1.0" standalone="no"?><!DOCTYPE svg PUBLIC "-//W3C//DTD SVG 1.1//EN" "http://www.w3.org/Graphics/SVG/1.1/DTD/svg11.dtd"><svg t="1554047698929" class="icon" style="" viewBox="0 0 1024 1024" version="1.1" xmlns="http://www.w3.org/2000/svg" p-id="14409" xmlns:xlink="http://www.w3.org/1999/xlink" width="32" height="32"><defs><style type="text/css"></style></defs><path d="M800 64H160c-16 0-32 16-32 32v832c0 16 16 32 32 32h640c16 0 32-16 32-32V96c0-16-16-32-32-32z m-32 832H192V128h576v768z" fill="#727272" p-id="14410"></path><path d="M640 425.6l-9.6 51.2H576l-16 73.6h57.6l-9.6 51.2h-54.4l-25.6 102.4h-57.6l19.2-102.4h-64l-16 102.4H352l19.2-102.4H320l9.6-51.2H384l16-73.6h-57.6l9.6-51.2h57.6l22.4-105.6h57.6l-22.4 105.6h64l22.4-105.6H608l-22.4 105.6H640z m-118.4 51.2h-64l-16 73.6h64l16-73.6z" fill="#1177D7" p-id="14411"></path></svg>