<?xml version="1.0" standalone="no"?><!DOCTYPE svg PUBLIC "-//W3C//DTD SVG 1.1//EN" "http://www.w3.org/Graphics/SVG/1.1/DTD/svg11.dtd"><svg t="1554047796335" class="icon" style="" viewBox="0 0 1024 1024" version="1.1" xmlns="http://www.w3.org/2000/svg" p-id="19883" xmlns:xlink="http://www.w3.org/1999/xlink" width="32" height="32"><defs><style type="text/css"></style></defs><path d="M682.666667 34.133333a34.133333 34.133333 0 0 1 34.133333 34.133334v68.266666H341.333333a68.266667 68.266667 0 0 0-68.266666 68.266667v648.533333H68.266667a34.133333 34.133333 0 0 1-34.133334-34.133333V68.266667a34.133333 34.133333 0 0 1 34.133334-34.133334h614.4m0-34.133333H68.266667a68.266667 68.266667 0 0 0-68.266667 68.266667v750.933333a68.266667 68.266667 0 0 0 68.266667 68.266667h204.8a34.133333 34.133333 0 0 0 34.133333-34.133334V204.8a34.133333 34.133333 0 0 1 34.133333-34.133333h375.466667a34.133333 34.133333 0 0 0 34.133333-34.133334V68.266667a68.266667 68.266667 0 0 0-68.266666-68.266667z" fill="#13B482" p-id="19884"></path><path d="M375.466667 238.933333h546.133333v682.666667H375.466667z" fill="#FFEF94" p-id="19885"></path><path d="M955.733333 170.666667a34.133333 34.133333 0 0 1 34.133334 34.133333v750.933333a34.133333 34.133333 0 0 1-34.133334 34.133334H341.333333a34.133333 34.133333 0 0 1-34.133333-34.133334V204.8a34.133333 34.133333 0 0 1 34.133333-34.133333h614.4m0-34.133334H341.333333a68.266667 68.266667 0 0 0-68.266666 68.266667v750.933333a68.266667 68.266667 0 0 0 68.266666 68.266667h614.4a68.266667 68.266667 0 0 0 68.266667-68.266667V204.8a68.266667 68.266667 0 0 0-68.266667-68.266667z" fill="#13B482" p-id="19886"></path><path d="M443.733333 341.333333h409.6v34.133334H443.733333z" fill="#13B482" p-id="19887"></path><path d="M443.733333 546.133333h409.6v34.133334H443.733333z" fill="#13B482" p-id="19888"></path><path d="M443.733333 750.933333h204.8v34.133334h-204.8z" fill="#13B482" p-id="19889"></path><path d="M170.666667 238.933333h102.4v34.133334H170.666667z" fill="#13B482" p-id="19890"></path><path d="M170.666667 443.733333h102.4v34.133334H170.666667z" fill="#13B482" p-id="19891"></path><path d="M170.666667 614.4h102.4v34.133333H170.666667z" fill="#13B482" p-id="19892"></path></svg>